Media Info

Video
ID                             : 0
Format                         : MPEG-4 Visual
Format profile                 : Advanced Simple@L5
Format settings, BVOP          : 3
Format settings, QPel          : No
Format settings, GMC           : No warppoints
Format settings, Matrix        : Default (H.263)
Codec ID                       : XVID
Codec ID/Hint                  : XviD
Duration                       : 22mn 43s
Bit rate                       : 905 Kbps
Width                          : 704 pixels
Height                         : 396 pixels
Display aspect ratio           : 16:9
Frame rate                     : 23.976 fps
Color space                    : YUV
Chroma subsampling             : 4:2:0
Bit depth                      : 8 bits
Scan type                      : Progressive
Compression mode               : Lossy
Bits/(Pixel*Frame)             : 0.135
Stream size                    : 147 MiB (87%)
Writing library                : XviD 64

Audio
ID                             : 1
Format                         : MPEG Audio
Format version                 : Version 1
Format profile                 : Layer 3
Mode                           : Joint stereo
Codec ID                       : 55
Codec ID/Hint                  : MP3
Duration                       : 22mn 43s
Bit rate mode                  : Variable
Bit rate                       : 112 Kbps
Channel(s)                     : 2 channels
Sampling rate                  : 48.0 KHz
Compression mode               : Lossy
Stream size                    : 19.4 MiB (12%)
Alignment                      : Aligned on interleaves
Interleave, duration           : 24 ms (0.58 video frame)
Writing library                : LAME3.99.5


Screenshots 
http://bayimg.com/LaPkdaADf 
http://bayimg.com/KaPKaAADF 
http://bayimg.com/kAPkpAADf 
http://bayimg.com/LApKiAADf 
http://bayimg.com/LapkmAadf 
http://bayimg.com/LaPKoAAdF 
http://bayimg.com/MapKpAAdf